HIERARCHY
ROOT Pelvis
{
	OFFSET 0.000000 0.000000 0.000000
	CHANNELS 6 Xposition Yposition Zposition Xrotation Yrotation Zrotation
	JOINT LeftUpLeg_virtual
	{
		OFFSET 0.000000 0.000000 0.000000
		CHANNELS 3 Xrotation Yrotation Zrotation
		JOINT LeftUpLeg
		{
			OFFSET 18.735201 -5.666702 -4.541200
			CHANNELS 3 Xrotation Yrotation Zrotation
			JOINT LeftLeg
			{
				OFFSET -0.021200 -31.938179 0.493100
				CHANNELS 3 Xrotation Yrotation Zrotation
				JOINT LeftFoot
				{
					OFFSET 0.021200 -31.938179 -4.336299
					CHANNELS 3 Xrotation Yrotation Zrotation
					JOINT LeftToeBase
					{
						OFFSET 0.943001 -26.722000 15.023500
						CHANNELS 3 Xrotation Yrotation Zrotation
						End Site
						{
							OFFSET 0 0 0
						}
					}
				}
			}
		}
	}
	JOINT RightUpLeg_virtual
	{
		OFFSET 0.000000 0.000000 0.000000
		CHANNELS 3 Xrotation Yrotation Zrotation
		JOINT RightUpLeg
		{
			OFFSET -18.735201 -5.666702 -4.541200
			CHANNELS 3 Xrotation Yrotation Zrotation
			JOINT RightLeg
			{
				OFFSET 0.018946 -31.938133 0.493100
				CHANNELS 3 Xrotation Yrotation Zrotation
				JOINT RightFoot
				{
					OFFSET -0.018946 -31.938126 -4.336299
					CHANNELS 3 Xrotation Yrotation Zrotation
					JOINT RightToeBase
					{
						OFFSET -0.943001 -26.722004 15.023500
						CHANNELS 3 Xrotation Yrotation Zrotation
						End Site
						{
							OFFSET 0 0 0
						}
					}
				}
			}
		}
	}
	JOINT Hips_virtual
	{
		OFFSET 0.000000 0.000000 0.000000
		CHANNELS 3 Xrotation Yrotation Zrotation
		JOINT Hips
		{
			OFFSET -0.000000 -0.000000 -0.000000
			CHANNELS 3 Xrotation Yrotation Zrotation
			JOINT Spine
			{
				OFFSET 0.000000 10.199997 -0.299500
				CHANNELS 3 Xrotation Yrotation Zrotation
				JOINT Spine1
				{
					OFFSET 0.000000 11.900002 -1.516600
					CHANNELS 3 Xrotation Yrotation Zrotation
					JOINT Spine2
					{
						OFFSET 0.000000 13.600006 -2.842500
						CHANNELS 3 Xrotation Yrotation Zrotation
						JOINT Neck_virtual
						{
							OFFSET 0.000000 0.000000 0.000000
							CHANNELS 3 Xrotation Yrotation Zrotation
							JOINT Neck
							{
								OFFSET 0.000000 9.624100 -2.890100
								CHANNELS 3 Xrotation Yrotation Zrotation
								JOINT Head
								{
									OFFSET 0.000000 14.068802 -1.351900
									CHANNELS 3 Xrotation Yrotation Zrotation
									End Site
									{
										OFFSET 0 0 0
									}
								}
							}
						}
						JOINT LeftShoulder_virtual
						{
							OFFSET 0.000000 0.000000 0.000000
							CHANNELS 3 Xrotation Yrotation Zrotation
							JOINT LeftShoulder
							{
								OFFSET 15.263000 10.923401 -0.547700
								CHANNELS 3 Xrotation Yrotation Zrotation
								JOINT LeftArm
								{
									OFFSET 25.438599 -2.830597 -13.032500
									CHANNELS 3 Xrotation Yrotation Zrotation
									JOINT LeftForeArm
									{
										OFFSET 29.960503 0.000000 0.000000
										CHANNELS 3 Xrotation Yrotation Zrotation
										JOINT LeftHand
										{
											OFFSET 27.849251 0.000000 0.000000
											CHANNELS 3 Xrotation Yrotation Zrotation
											End Site
											{
												OFFSET 0 0 0
											}
										}
									}
								}
							}
						}
						JOINT RightShoulder_virtual
						{
							OFFSET 0.000000 0.000000 0.000000
							CHANNELS 3 Xrotation Yrotation Zrotation
							JOINT RightShoulder
							{
								OFFSET -15.263000 10.923401 -0.547700
								CHANNELS 3 Xrotation Yrotation Zrotation
								JOINT RightArm
								{
									OFFSET -25.438599 -2.830597 -13.032500
									CHANNELS 3 Xrotation Yrotation Zrotation
									JOINT RightForeArm
									{
										OFFSET -29.960503 0.000000 0.000000
										CHANNELS 3 Xrotation Yrotation Zrotation
										JOINT RightHand
										{
											OFFSET -27.849251 0.000000 0.000000
											CHANNELS 3 Xrotation Yrotation Zrotation
											End Site
											{
												OFFSET 0 0 0
											}
										}
									}
								}
							}
						}
					}
				}
			}
		}
	}
}
MOTION
Frames: 14
Frame Time: 0.03333333
1.625478 41.106205 -3.490591 0.000000 0.000000 0.000000 45.750192 -7.508904 -4.062383 24.044264 15.885823 3.253579 21.245501 3.167434 -0.062177 -25.416910 3.559312 -3.735271 0.000000 0.000000 0.000000 38.547443 4.772449 3.187366 23.926472 -8.992486 -7.675729 28.545908 0.497274 -3.054889 -20.276974 -2.146235 6.125895 0.000000 0.000000 0.000000 17.842110 3.522174 -0.623314 66.113718 3.254294 -0.340375 4.259538 -1.189894 0.426559 1.142814 -0.193498 0.329185 0.000000 0.000000 0.000000 -1.356440 -0.092477 0.525457 -2.076063 -0.397772 0.863604 0.000000 0.000000 0.000000 2.985155 0.949903 0.450412 2.064769 -6.399346 2.857096 -26.049431 -20.305615 -39.726347 -0.266285 -57.114834 0.761459 0.000000 0.000000 0.000000 2.155122 -0.178628 1.317608 1.268709 7.746453 8.443779 -17.730966 31.409513 28.063600 1.182875 66.997824 -3.011209 0.000000 0.000000 0.000000 
1.634565 41.129192 -3.539598 0.000000 0.000000 0.000000 45.991615 -7.515660 -4.101842 24.422007 15.886988 3.138424 20.591285 3.157214 0.012766 -25.921304 3.532515 -3.654768 0.000000 0.000000 0.000000 38.794064 4.839992 3.240331 24.303883 -8.982199 -7.551206 28.162992 0.498041 -3.073731 -20.585391 -2.156610 6.068328 0.000000 0.000000 0.000000 17.931514 3.545715 -0.615940 66.159589 3.215520 -0.127352 4.185271 -1.228395 0.381180 1.112271 -0.193104 0.330121 0.000000 0.000000 0.000000 -1.360335 -0.088116 0.520408 -2.056369 -0.404250 0.854460 0.000000 0.000000 0.000000 2.946385 0.943241 0.456021 2.057902 -6.502732 2.937823 -26.061717 -20.600730 -39.660549 -0.085666 -57.324924 0.788715 0.000000 0.000000 0.000000 2.172076 -0.162531 1.361684 1.346652 7.803869 8.503700 -17.833305 31.788428 27.883576 1.192126 67.118978 -3.023614 0.000000 0.000000 0.000000 
1.633681 41.161587 -3.627012 0.000000 0.000000 0.000000 46.425714 -7.509661 -4.180787 25.103131 15.892168 2.929545 19.397905 3.134596 0.159076 -26.833231 3.476044 -3.496905 0.000000 0.000000 0.000000 39.247192 4.964822 3.339590 24.992089 -8.961556 -7.321157 27.509372 0.501028 -3.110116 -21.111244 -2.169065 5.962464 0.000000 0.000000 0.000000 18.110812 3.589058 -0.596065 66.216813 3.152389 0.243042 4.036322 -1.291452 0.299764 1.055979 -0.192734 0.329765 0.000000 0.000000 0.000000 -1.368836 -0.077001 0.509810 -2.018353 -0.416626 0.836859 0.000000 0.000000 0.000000 2.871257 0.931414 0.467298 2.041400 -6.700181 3.100721 -26.092171 -21.142248 -39.543513 0.238282 -57.729333 0.824987 0.000000 0.000000 0.000000 2.203191 -0.131555 1.442066 1.488542 7.913043 8.600095 -18.043125 32.488652 27.565593 1.196411 67.315688 -3.026204 0.000000 0.000000 0.000000 
1.596832 41.183472 -3.737982 0.000000 0.000000 0.000000 46.970425 -7.465722 -4.296757 25.962819 15.904724 2.662809 17.859568 3.096666 0.368394 -27.993493 3.386837 -3.269765 0.000000 0.000000 0.000000 39.836983 5.129804 3.472234 25.877819 -8.930967 -7.019189 26.765973 0.507747 -3.161813 -21.708935 -2.171501 5.823107 0.000000 0.000000 0.000000 18.379587 3.652239 -0.555860 66.230309 3.092059 0.681729 3.816819 -1.356352 0.198114 0.981963 -0.192751 0.325316 0.000000 0.000000 0.000000 -1.382014 -0.055849 0.492981 -1.964937 -0.433942 0.812087 0.000000 0.000000 0.000000 2.764770 0.917187 0.484711 2.011317 -6.973447 3.346259 -26.155362 -21.848252 -39.401562 0.638489 -58.299647 0.837976 0.000000 0.000000 0.000000 2.242743 -0.087881 1.545355 1.669882 8.063814 8.694388 -18.368812 33.409597 27.177937 1.165916 67.513114 -2.979815 0.000000 0.000000 0.000000 
1.507405 41.178757 -3.861040 0.000000 0.000000 0.000000 47.534739 -7.371713 -4.441487 26.863573 15.924922 2.377483 16.194430 3.042089 0.626183 -29.230133 3.265593 -2.988402 0.000000 0.000000 0.000000 40.480547 5.315120 3.620695 26.832070 -8.892088 -6.686092 26.116406 0.518155 -3.226135 -22.231863 -2.153977 5.665292 0.000000 0.000000 0.000000 18.733868 3.746910 -0.488917 66.146912 3.068936 1.098395 3.541915 -1.399593 0.093823 0.899587 -0.192792 0.315493 0.000000 0.000000 0.000000 -1.397672 -0.022480 0.469610 -1.900506 -0.454991 0.781930 0.000000 0.000000 0.000000 2.634984 0.904001 0.509421 1.964839 -7.296590 3.670299 -26.274618 -22.627645 -39.267133 1.032966 -58.998792 0.789711 0.000000 0.000000 0.000000 2.282630 -0.034082 1.655947 1.861816 8.244396 8.745345 -18.815679 34.432111 26.791441 1.059906 67.633845 -2.840483 0.000000 0.000000 0.000000 
1.368419 41.142979 -3.991197 0.000000 0.000000 0.000000 48.042704 -7.240763 -4.599346 27.692608 15.946950 2.105485 14.594268 2.973085 0.911450 -30.398980 3.119704 -2.675377 0.000000 0.000000 0.000000 41.099670 5.500915 3.766347 27.740151 -8.848253 -6.361124 25.688232 0.529849 -3.300183 -22.578126 -2.112956 5.500142 0.000000 0.000000 0.000000 19.162622 3.896621 -0.394648 65.938209 3.114352 1.427910 3.240928 -1.404161 0.001393 0.818604 -0.191385 0.301591 0.000000 0.000000 0.000000 -1.410846 0.022855 0.440282 -1.830171 -0.478231 0.748623 0.000000 0.000000 0.000000 2.493599 0.895111 0.543021 1.902130 -7.638855 4.061314 -26.475290 -23.401714 -39.171538 1.344590 -59.782925 0.647653 0.000000 0.000000 0.000000 2.314355 0.027607 1.759534 2.038534 8.445364 8.720692 -19.374609 35.444655 26.458654 0.842394 67.623763 -2.577155 0.000000 0.000000 0.000000 
1.201647 41.085136 -4.126673 0.000000 0.000000 0.000000 48.449230 -7.109565 -4.749387 28.386761 15.958761 1.864757 13.196128 2.895832 1.198403 -31.402078 2.963329 -2.358876 0.000000 0.000000 0.000000 41.635539 5.669301 3.894405 28.523112 -8.803900 -6.073783 25.525187 0.538373 -3.380510 -22.710691 -2.052534 5.333938 0.000000 0.000000 0.000000 19.645176 4.126295 -0.280541 65.613399 3.245648 1.640480 2.953400 -1.363354 -0.071244 0.748857 -0.186344 0.286714 0.000000 0.000000 0.000000 -1.414746 0.077335 0.406613 -1.758423 -0.501681 0.714777 0.000000 0.000000 0.000000 2.355870 0.892691 0.586696 1.826976 -7.969939 4.500444 -26.773575 -24.115419 -39.138101 1.519468 -60.601058 0.394795 0.000000 0.000000 0.000000 2.332269 0.095906 1.845625 2.183667 8.662982 8.604029 -20.011266 36.363295 26.203177 0.502239 67.467072 -2.187158 0.000000 0.000000 0.000000 
1.038065 41.023506 -4.262696 0.000000 0.000000 0.000000 48.743765 -7.024222 -4.870255 28.938391 15.945266 1.658805 12.077669 2.818951 1.460047 -32.186925 2.814398 -2.068670 0.000000 0.000000 0.000000 42.057573 5.806954 3.998006 29.147088 -8.763030 -5.838243 25.595369 0.538096 -3.462668 -22.650709 -1.983134 5.169788 0.000000 0.000000 0.000000 20.151990 4.446138 -0.160510 65.216251 3.460134 1.737019 2.718664 -1.280488 -0.123780 0.699577 -0.175986 0.273751 0.000000 0.000000 0.000000 -1.402501 0.136289 0.370705 -1.687823 -0.523185 0.683170 0.000000 0.000000 0.000000 2.238963 0.897336 0.640240 1.746058 -8.266881 4.965162 -27.169015 -24.737388 -39.178648 1.536806 -61.395539 0.034528 0.000000 0.000000 0.000000 2.336522 0.170582 1.908546 2.293423 8.899842 8.396089 -20.664188 37.140772 26.019824 0.063150 67.183653 -1.699319 0.000000 0.000000 0.000000 
0.906092 40.978294 -4.387538 0.000000 0.000000 0.000000 48.943175 -7.022192 -4.945413 29.382719 15.893644 1.481581 11.266085 2.750884 1.673100 -32.737104 2.689830 -1.830687 0.000000 0.000000 0.000000 42.364508 5.908581 4.079226 29.620273 -8.727370 -5.652278 25.823403 0.523030 -3.541228 -22.453911 -1.918864 5.009931 0.000000 0.000000 0.000000 20.649545 4.840110 -0.049965 64.807642 3.737117 1.738439 2.564039 -1.165781 -0.161713 0.677683 -0.160477 0.263433 0.000000 0.000000 0.000000 -1.368649 0.194170 0.334187 -1.618459 -0.541165 0.656390 0.000000 0.000000 0.000000 2.158974 0.908049 0.701581 1.667471 -8.519646 5.435495 -27.645910 -25.253108 -39.293508 1.406926 -62.107074 -0.411318 0.000000 0.000000 0.000000 2.334010 0.251990 1.947052 2.375034 9.162488 8.111642 -21.257186 37.764153 25.882624 -0.425093 66.813443 -1.161649 0.000000 0.000000 0.000000 
0.823294 40.965038 -4.484140 0.000000 0.000000 0.000000 49.078109 -7.118925 -4.966160 29.772948 15.798405 1.325240 10.750852 2.698160 1.822831 -33.062429 2.601632 -1.661534 0.000000 0.000000 0.000000 42.577869 5.978250 4.146983 29.979845 -8.695721 -5.501005 26.126314 0.487620 -3.610654 -22.184856 -1.874278 4.856897 0.000000 0.000000 0.000000 21.108184 5.266876 0.039717 64.442377 4.043851 1.678351 2.497763 -1.032592 -0.192797 0.686040 -0.142507 0.253675 0.000000 0.000000 0.000000 -1.309703 0.245366 0.297385 -1.548453 -0.555466 0.636403 0.000000 0.000000 0.000000 2.127557 0.922669 0.767176 1.599072 -8.732350 5.899740 -28.181755 -25.658335 -39.473647 1.160169 -62.684047 -0.909775 0.000000 0.000000 0.000000 2.336467 0.340356 1.963091 2.441422 9.457763 7.773395 -21.721245 38.244640 25.755009 -0.907351 66.396645 -0.622774 0.000000 0.000000 0.000000 
0.793373 40.991589 -4.536934 0.000000 0.000000 0.000000 49.178684 -7.304841 -4.932110 30.153417 15.663786 1.186431 10.495672 2.665091 1.905965 -33.191134 2.555237 -1.564986 0.000000 0.000000 0.000000 42.730428 6.026923 4.213012 30.273167 -8.664955 -5.364177 26.437473 0.427659 -3.666759 -21.899373 -1.861246 4.713032 0.000000 0.000000 0.000000 21.508891 5.672790 0.104188 64.152238 4.340760 1.599848 2.509617 -0.894694 -0.223416 0.723028 -0.126558 0.240527 0.000000 0.000000 0.000000 -1.224057 0.284914 0.259241 -1.475165 -0.567703 0.624321 0.000000 0.000000 0.000000 2.149738 0.938486 0.833090 1.547386 -8.919073 6.357014 -28.754994 -25.955902 -39.702107 0.834199 -63.092889 -1.424769 0.000000 0.000000 0.000000 2.356674 0.435326 1.960420 2.504695 9.790193 7.405411 -22.015332 38.605687 25.598514 -1.342083 65.960708 -0.118454 0.000000 0.000000 0.000000 
0.807502 41.059036 -4.539545 0.000000 0.000000 0.000000 49.264232 -7.550903 -4.850648 30.541030 15.503063 1.068148 10.449381 2.654680 1.930235 -33.163164 2.550385 -1.532044 0.000000 0.000000 0.000000 42.854154 6.067270 4.288211 30.539900 -8.631985 -5.223642 26.713568 0.341287 -3.708064 -21.638545 -1.886568 4.579143 0.000000 0.000000 0.000000 21.846544 6.011539 0.145292 63.939668 4.585039 1.552476 2.578035 -0.764583 -0.256613 0.783870 -0.117205 0.220077 0.000000 0.000000 0.000000 -1.111675 0.309258 0.218001 -1.396492 -0.580776 0.620427 0.000000 0.000000 0.000000 2.223928 0.952896 0.896226 1.517263 -9.096879 6.815433 -29.347137 -26.155803 -39.954179 0.465530 -63.324815 -1.922392 0.000000 0.000000 0.000000 2.404623 0.536013 1.943525 2.571594 10.161173 7.027821 -22.136250 38.873356 25.379168 -1.710491 65.517401 0.332880 0.000000 0.000000 0.000000 
0.847806 41.164986 -4.500299 0.000000 0.000000 0.000000 49.340446 -7.819523 -4.735456 30.921916 15.335008 0.977016 10.556179 2.669063 1.910818 -33.023299 2.582949 -1.544728 0.000000 0.000000 0.000000 42.971763 6.108804 4.380156 30.800738 -8.595490 -5.068518 26.929383 0.229683 -3.736298 -21.430972 -1.950995 4.453583 0.000000 0.000000 0.000000 22.128372 6.260965 0.167707 63.784746 4.735647 1.584433 2.678681 -0.652460 -0.292197 0.863055 -0.117284 0.189992 0.000000 0.000000 0.000000 -0.974132 0.317049 0.172249 -1.311698 -0.597747 0.624439 0.000000 0.000000 0.000000 2.344129 0.963885 0.955057 1.512306 -9.280047 7.287306 -29.939636 -26.275511 -40.198074 0.087042 -63.396108 -2.372627 0.000000 0.000000 0.000000 2.485390 0.641416 1.916901 2.642538 10.569018 6.654383 -22.115119 39.070813 25.072361 -2.015059 65.068145 0.727664 0.000000 0.000000 0.000000 
0.892496 41.306698 -4.442570 0.000000 0.000000 0.000000 49.402936 -8.075725 -4.604546 31.262268 15.178806 0.917991 10.763990 2.709009 1.865283 -32.814694 2.646553 -1.582049 0.000000 0.000000 0.000000 43.093508 6.156447 4.491974 31.055371 -8.556196 -4.896636 27.070302 0.097005 -3.755812 -21.296484 -2.049764 4.332532 0.000000 0.000000 0.000000 22.369088 6.430075 0.175589 63.657821 4.760722 1.731268 2.791553 -0.565257 -0.328272 0.956626 -0.126952 0.150134 0.000000 0.000000 0.000000 -0.814724 0.309644 0.121733 -1.221603 -0.620719 0.635824 0.000000 0.000000 0.000000 2.503196 0.970284 1.009676 1.535636 -9.478847 7.783984 -30.510376 -26.338809 -40.397659 -0.271222 -63.341480 -2.749252 0.000000 0.000000 0.000000 2.599194 0.750853 1.884614 2.713820 11.009198 6.292574 -22.004575 39.217000 24.667064 -2.272181 64.611062 1.072327 0.000000 0.000000 0.000000 
